<svg width="20" height="20" viewBox="0 0 20 20" fill="none" xmlns="http://www.w3.org/2000/svg">
<path d="M18.3025 7.85628C19.92 8.82753 19.92 11.1725 18.3025 12.1438L6.9125 18.9788C5.2975 19.9475 3.2575 18.8513 3.13125 17.015L3.125 16.835V3.16503L3.13125 2.98628C3.25625 1.14878 5.2975 0.0537773 6.9125 1.02253L18.3025 7.85628ZM17.3388 10.5363C17.4312 10.4807 17.5076 10.4022 17.5607 10.3083C17.6138 10.2145 17.6417 10.1085 17.6417 10.0007C17.6417 9.89282 17.6138 9.78683 17.5607 9.69298C17.5076 9.59912 17.4312 9.52059 17.3388 9.46503L5.945 2.63003C5.85026 2.57356 5.74227 2.54316 5.63199 2.54193C5.5217 2.5407 5.41306 2.56867 5.31708 2.623C5.22111 2.67734 5.14122 2.75611 5.08553 2.8513C5.02984 2.9465 5.00033 3.05474 5 3.16503V16.835C4.99998 16.9456 5.02929 17.0542 5.08496 17.1498C5.14062 17.2453 5.22064 17.3244 5.31685 17.3789C5.41306 17.4334 5.52201 17.4615 5.63258 17.4601C5.74315 17.4588 5.85139 17.4281 5.94625 17.3713L17.3388 10.5363Z" fill="#C92A2A"/>
</svg>
